<?xml version="1.0" encoding="utf-8"?>
<!-- Generator: Adobe Illustrator 24.1.2, SVG Export Plug-In . SVG Version: 6.00 Build 0)  -->
<svg version="1.1" id="Layer_1" xmlns="http://www.w3.org/2000/svg" xmlns:xlink="http://www.w3.org/1999/xlink" x="0px" y="0px"
	 viewBox="0 0 1922.3 211.4" style="enable-background:new 0 0 1922.3 211.4;" xml:space="preserve">
<style type="text/css">
	.st0{fill:#FAFAFA;}
</style>
<path class="st0" d="M0,209V0c35.6,7.2,109.8,21.8,207.8,39.3C324.5,60.1,441.1,79,554.2,95.4c147.7,21.4,288,38.3,417.1,50.2
	c74.7,6.9,146.6,12.2,213.8,15.9c35.8,1.9,70.9,3.4,104.5,4.4c34.9,1,69,1.5,101.5,1.5h0.1c28.9,0,57.2-0.4,84.2-1.2
	c27.8-0.8,54.8-2.1,80.4-3.8c26.4-1.8,52-4,76.1-6.6c24.8-2.7,48.7-6,71-9.7c22.9-3.8,44.9-8.1,65.3-12.9
	c20.9-4.9,40.7-10.5,58.9-16.4c17.6-5.8,34.9-12.5,51.8-20.2c15.1-7,29.8-15.1,43.9-24.2V209H0z"/>
</svg>
