<?xml version="1.0" encoding="utf-8"?>
<!-- Generator: Adobe Illustrator 24.3.0, SVG Export Plug-In . SVG Version: 6.00 Build 0)  -->
<svg version="1.1" id="Layer_1" xmlns="http://www.w3.org/2000/svg" xmlns:xlink="http://www.w3.org/1999/xlink" x="0px" y="0px"
	 viewBox="0 0 600 105.4" style="enable-background:new 0 0 600 105.4;" xml:space="preserve">
<style type="text/css">
	.st0{fill:#FFCD4C;}
</style>
<polygon class="st0" points="55.4,0 68.5,40.2 110.8,40.2 76.6,65.1 89.6,105.4 55.4,80.5 21.2,105.4 34.2,65.1 0,40.2 42.3,40.2 
	"/>
<polygon class="st0" points="177.7,0 190.8,40.2 233.1,40.2 198.9,65.1 211.9,105.4 177.7,80.5 143.5,105.4 156.5,65.1 122.3,40.2 
	164.6,40.2 "/>
<polygon class="st0" points="300,0 313.1,40.2 355.4,40.2 321.2,65.1 334.2,105.4 300,80.5 265.8,105.4 278.8,65.1 244.6,40.2 
	286.9,40.2 "/>
<polygon class="st0" points="422.3,0 435.4,40.2 477.7,40.2 443.5,65.1 456.5,105.4 422.3,80.5 388.1,105.4 401.1,65.1 366.9,40.2 
	409.2,40.2 "/>
<polygon class="st0" points="544.6,0 557.7,40.2 600,40.2 565.8,65.1 578.8,105.4 544.6,80.5 510.4,105.4 523.4,65.1 489.2,40.2 
	531.5,40.2 "/>
</svg>
