<?xml version="1.0" encoding="utf-8"?>
<!-- Generator: Adobe Illustrator 24.1.2, SVG Export Plug-In . SVG Version: 6.00 Build 0)  -->
<svg version="1.1" id="Layer_1" xmlns="http://www.w3.org/2000/svg" xmlns:xlink="http://www.w3.org/1999/xlink" x="0px" y="0px"
	 viewBox="0 0 650 650" style="enable-background:new 0 0 650 650;" xml:space="preserve">
<style type="text/css">
	.st0{fill:#29B6E9;}
	.st1{fill:#284168;}
</style>
<g>
	<path class="st0" d="M212.4,348.4c1.8-0.3,3.5-0.6,5.3-0.8c13.5-2.1,26.1-7,37.8-14c1.7-1,3.4-1.5,5.4-1.5c52,0,104,0,156.1,0
		c6.6,0,13.1,0,19.6-1.2c26-5.1,46.8-26.9,50.2-53c4.5-34.9-17.8-65-51.2-71.6c-3-0.6-6-0.8-9.3-1.2c-0.3,2.5-0.5,4.8-0.8,7.1
		c-1.6,10.4-4.9,20.1-11.3,28.5c-1.2,1.5-2.6,2.9-4,4.3c-0.2,0.2-0.4,0.3-0.9,0.6c0.6-3.8,1.1-7.3,1.6-10.8
		c2.1-14.8,3-29.8-0.6-44.3c-8.6-35-29.7-58.5-65.5-67.3c-19.3-4.7-38-3-55.6,6.5c-17.9,9.6-31.6,23.2-39.4,42.2
		c-3.4,8.4-5.5,17.1-6,26.1c-0.2,3.2-0.4,6.3-0.6,9.7c-2.4-0.4-4.7-0.9-7-1.3c-11.7-1.9-23.4-1.6-34.5,3
		c-19.6,8-32.4,22.4-38.5,42.7c-4.6,15.3-2.5,30.1,4.3,44.3c1.4,2.9,3.1,5.7,4.7,8.5c0.3,0.6,0.6,1.1,1.2,2.1
		c-0.7-0.3-0.9-0.3-1.1-0.5c-12-9.6-20.3-21.5-23.6-36.7c-1.8-8.5-1.2-17,0.3-25.5c2.7-15.7,11.4-27.6,23.2-37.6
		c12-10.3,26-16.3,41.7-18.3c4.1-0.5,8.2-0.4,12.3-0.7c0.5,0,0.9-0.1,1.6-0.2c0.4-1.4,0.7-2.7,1-4.1c3-13.5,8.2-26.1,16.3-37.2
		c16.2-22.3,38-36,65.3-40.8c7.1-1.2,14.3-1.7,21.4-1.2c24,1.7,45.1,10.3,62.8,26.9c15,14.1,24.6,31.3,29.2,51.3
		c0.4,1.7,0.9,3.4,1.3,5.1c2.5,0.2,4.9,0.3,7.2,0.5c14.9,1.3,28.1,6.9,40,15.7c17.8,13.1,28.2,30.9,31.6,52.6
		c7.2,45.5-24.8,85.3-66,92.1c-5.5,0.9-10.9,1.5-16.5,1.4c-66.3,0-132.7,0-199-0.1c-3,0-6-0.5-9.1-0.8c-0.3,0-0.6-0.2-0.9-0.3
		C212.4,348.6,212.4,348.5,212.4,348.4z"/>
	<path class="st0" d="M566.1,484.6c-9.2,0-18,0-26.9,0c-0.7-1.2-1.4-2.4-2.1-3.6c-4.4-8.1-8.8-16.3-13.3-24.4
		c-1.2-2.1-2.6-4.1-4.1-6c-1.1-1.5-2.7-2.3-4.6-1.5c-2.1,0.8-3,2-3,4.5c0,9.5,0,18.9,0,28.4c0,0.8,0,1.6,0,2.5c-7.6,0-14.9,0-22.3,0
		c0-36.3,0-72.6,0-108.9c0.7-0.1,1.2-0.1,1.8-0.1c3.3,0,6.6,0.1,9.9,0c5.4-0.2,10.7,5.3,10.6,10.6c-0.2,14-0.1,28.1-0.1,42.2
		c0,0.7,0,1.5,0,2.2c0.1,0.1,0.2,0.2,0.3,0.2c8.8-10.1,17.6-20.3,26.4-30.4c13.6,0,27,0,40.7,0c5.6,19.4,11.2,38.9,16.9,58.9
		c0.3-1,0.5-1.5,0.7-2.1c4.7-16.3,9.4-32.7,14.1-49c1.6-5.5,4.6-7.8,10.3-7.8c4.4,0,8.8,0,13.2,0c0.7,0,1.3,0,2.2,0
		c-0.3,0.9-0.4,1.5-0.6,2.2c-10.5,31.1-20.9,62.3-31.5,93.4c-1.2,3.5-3.1,6.9-4.9,10.2c-2.6,4.6-6.6,7.2-11.8,8.2
		c-6.1,1.1-12.2,1.5-18.3,0.6c-0.9-0.1-1.7-0.2-2.7-0.3c0-5.8,0-11.5,0-17.5c0.9-0.1,1.7-0.1,2.5-0.2c2.7-0.2,5.4-0.3,8.1-0.5
		c0.2,0,0.4-0.1,0.6-0.1c6-1.6,8.1-5.3,6.2-11.1c-2.8-8.6-5.9-17.1-8.9-25.6c-5.6-16.1-11.3-32.2-17-48.3c-0.2-0.6-0.5-1.2-0.8-2.1
		c-7.4,8-14.7,15.8-22,23.6C545.8,449.9,555.9,467.1,566.1,484.6z"/>
	<path class="st0" d="M396.5,450.6c7.6,0,14.9,0,22.3,0c0.1,0.5,0.3,1,0.4,1.5c1.2,7.5,5.6,12.3,12.7,14.5
		c7.1,2.2,14.2,2.3,21.4,0.4c4.8-1.3,8.6-4,9.8-9.2c0.8-3.5,0.1-6.5-2.6-9.1c-2.4-2.2-5.1-3.9-8.1-4.9c-5.1-1.8-10.4-3.4-15.6-4.9
		c-7.1-2.1-14.5-3.1-21.4-6.1c-2.6-1.1-5.2-2.6-7.6-4.2c-4.1-2.7-6-7-7.8-11.4c-1.7-4.3-2.1-8.8-1.9-13.3c0.2-5.6,1.4-11,4.4-15.8
		c4.1-6.6,10.2-10.7,17.5-13c8.6-2.7,17.3-3.2,26.2-2.6c4.8,0.4,9.5,1.2,14,2.9c12,4.5,18.5,13.4,20.9,25.7c0.4,1.9,0.4,3.8,0.7,5.9
		c-0.6,0.1-0.9,0.2-1.2,0.2c-3.9,0-7.8,0.1-11.8,0c-4.5-0.1-8-1.9-10-6c-2.7-5.5-7.1-8.3-12.8-9.5c-5.2-1.1-10.5-1.1-15.7,0.2
		c-4.8,1.2-8.4,4-9.6,9.1c-1,4.1,0.1,7.5,3.5,10c3.5,2.6,7.5,3.9,11.6,5c8.9,2.4,17.8,4.6,26.6,7.1c4.2,1.2,8.3,2.9,11.9,5.4
		c5.5,3.8,9,9.1,10.4,15.6c1.6,7,1.1,14-1.3,20.7c-3.3,9.4-10,15.5-19.3,18.9c-5.7,2.1-11.6,3-17.6,3.3c-8.4,0.4-16.7,0-24.8-2.5
		c-14.5-4.4-23.7-15.8-25-30.9C396.7,452.8,396.6,451.8,396.5,450.6z"/>
	<path class="st1" d="M112.3,411.3c-0.2,0.1-0.4,0.2-0.6,0.2c-4.9,0-9.9,0-14.8-0.2c-4-0.2-6.9-2.5-8.8-5.9
		c-0.7-1.2-1.4-2.4-2.2-3.7c-2.6-4.3-6.5-6.7-11.3-7.9c-6.2-1.5-12.3-1.5-18.4,0.2c-8.5,2.4-14.1,7.9-17.3,16
		c-1.7,4.5-2.6,9.2-2.9,14c-0.5,6.8-0.2,13.5,1.3,20.1c1,4.2,2.6,8.2,5.1,11.8c3.9,5.7,9.2,9.2,16,10.4c4.9,0.9,9.8,0.9,14.7-0.3
		c8.6-2.1,13.8-7.8,16.4-16c0.3-0.9,0.5-1.8,0.8-2.7c0-0.1,0.1-0.2,0.3-0.4c7.2,0,14.5,0,21.9,0c-0.1,4.3-1,8.4-2.4,12.3
		c-4.4,12.9-13.4,21.2-26.3,25.2c-12.1,3.7-24.4,4-36.6,0.8c-15.1-4-25-13.9-30.2-28.5c-2.4-6.6-3.4-13.4-3.8-20.4
		c-0.5-8.7-0.1-17.3,1.7-25.8c2.5-11.8,7.9-21.9,17.9-29.2c6.1-4.4,12.9-7,20.3-8.2c9.5-1.6,19-1.6,28.4,0.7
		c10.3,2.5,18.9,7.6,24.7,16.7c3.9,6.1,5.8,12.9,6.4,20.1C112.5,410.9,112.4,411.1,112.3,411.3z"/>
	<path class="st1" d="M288.2,304.7c3-2.9,6.2-5.6,9-8.7c12-12.7,22.7-26.4,32.8-40.6c15.6-21.8,29.8-44.6,42.9-68
		c0.3-0.6,0.7-1.2,1.4-2.3c8.2,33.1,13.2,64.2,18.3,96.6c-38.1,7.6-66.1,16-104,23.6C288.5,305.2,288.3,305,288.2,304.7z"/>
	<path class="st1" d="M271.4,287.9c3.1-17.3,5-34.4,5.4-51.7c0.4-17.3-0.3-34.5-2.8-52.1c32.4,0,64.7,0,97,0
		c-0.2,0.4-0.5,0.8-0.8,1.2c-10.6,13.1-21.1,26.4-31.8,39.4c-19.1,23-40.4,43.7-64.5,61.5C273.1,286.8,272.3,287.3,271.4,287.9z"/>
	<path class="st1" d="M229.1,448.2c-18.2,0-36.3,0-54.8,0c0.2,1.6,0.2,3.1,0.4,4.5c0.5,3.2,1.5,6.1,3.4,8.8
		c3.4,4.8,8.3,6.3,13.8,6.2c1.9,0,3.7-0.5,5.6-1c2.7-0.7,4.9-2.2,6.6-4.5c1.9-2.6,4.5-3.8,7.7-3.8c4.9,0,9.7,0,14.6,0
		c0.5,0,1.1,0.1,1.8,0.1c-0.2,0.7-0.3,1.4-0.5,2c-3.9,12.4-12,20.4-24.5,24c-7.7,2.2-15.6,2.4-23.4,0.6c-12.8-2.9-21-11.2-25.3-23.4
		c-2.9-8.4-3.4-17.1-2.8-25.8c0.4-6,1.6-11.9,4.2-17.4c5.6-12,15-18.6,28.1-20.1c6.6-0.8,13.1-0.4,19.5,1.4
		c11.4,3.2,18.9,10.6,22.9,21.7c3,8.1,3.5,16.6,3.2,25.2C229.4,447.2,229.2,447.6,229.1,448.2z M174.3,433.6c10.7,0,21.2,0,31.7,0
		c0.7-4.9-2.2-11.8-6.5-14.3c-5.9-3.4-12-3.5-17.9-0.1C176.3,422.4,174.7,427.6,174.3,433.6z"/>
	<path class="st1" d="M259.2,421.9c-7.2,0-14.2,0-21.4,0c0.1-0.9,0.1-1.6,0.3-2.3c1.9-8.6,7.2-14.5,15-18.1c4.4-2,9.1-2.9,13.9-3.2
		c7.8-0.4,15.5,0,23,2.3c2.3,0.7,4.6,1.7,6.6,2.9c6.8,4,10.3,10.2,10.4,18c0.1,10.3,0.1,20.5,0,30.8c0,3-0.4,6.1-1,9
		c-2.4,11.5-9.6,18.7-20.6,22.4c-5.1,1.7-10.3,2.1-15.6,2.4c-4.8,0.3-9.6,0.4-14.3-0.7c-3.9-0.9-7.5-2.5-10.9-4.7
		c-4.1-2.7-6.8-6.5-8.1-11.2c-1.8-6.4-1.9-12.8-0.1-19.2c1.2-4.5,3.7-8,7.6-10.6c6.1-4,12.9-6.1,20-7.1c4.7-0.6,9.3-1.5,13.9-2.5
		c1.7-0.4,3.4-1.3,5-2.2c1.9-1.1,2.9-2.9,2.7-5.1c-0.2-2.4-1.4-4.3-3.7-5.1c-5.8-2.1-11.7-2.6-17.7-0.7
		C262.1,417.9,260.4,419.6,259.2,421.9z M286.4,442.4c-6.1,2.6-11.9,3.9-17.6,5.2c-2,0.4-3.9,1.1-5.8,1.7c-4.2,1.4-6.3,4.6-6.6,8.8
		c-0.3,4.8,1.6,9.9,8.4,10.6c2.1,0.2,4.2,0.2,6.2,0c7.5-0.7,13.5-6.1,14.6-13.5C286.3,451.1,286.2,446.9,286.4,442.4z"/>
	<path class="st1" d="M337.3,484.6c-7.6,0-14.9,0-22.4,0c0-0.8-0.1-1.5-0.1-2.3c0-16.3,0-32.7,0-49c0-6.6,1-13,4-19
		c1.7-3.4,4.1-6.2,7.3-8.2c8-5.2,16.8-7.9,26.4-7.8c9,0.1,17.4,2.8,25,7.8c4.9,3.3,7.5,8.1,9.2,13.6c1.5,4.9,1.9,9.9,1.9,15
		c0.1,15.9,0,31.7,0,47.6c0,0.7-0.1,1.5-0.1,2.3c-0.7,0.1-1.3,0.1-1.9,0.1c-3,0-6.1,0-9.1,0c-7-0.1-11.1-4.3-11.1-11.4
		c0-14,0-28,0-41.9c0-1.1,0-2.3-0.1-3.4c-0.6-5.1-3.4-8.5-8.2-10.4c-4.4-1.8-8.8-1.8-13.2,0.2c-4.9,2.2-7.3,6-7.6,11.2
		c0,0.8,0,1.6,0,2.4c0,16.8,0,33.6,0,50.4C337.3,482.6,337.3,483.5,337.3,484.6z"/>
	<path class="st1" d="M366.9,194.6c-0.3,0.6-0.6,1.3-1,1.9c-3.6,5.2-7.2,10.3-10.8,15.5c-6.4,9.4-12.6,19.1-19.1,28.4
		c-11.1,15.9-23.5,30.8-37,44.8c-14,14.5-29,28-45.7,39.3c-11.6,7.8-24.3,13.1-38.3,15.1c-8.8,1.3-17.5,0.8-26.1-1.1
		c-12.1-2.7-21.8-8.9-29.4-18.8c-7.2-9.3-12.3-19.6-15.2-31c-0.4-1.8-0.5-3.7-0.8-5.6c0.2-0.1,0.3-0.1,0.5-0.2
		c0.3,0.4,0.7,0.8,1,1.2c2.7,4.1,5.4,8.3,8.1,12.3c5.6,8.3,12.6,15.3,21,20.8c9.7,6.2,20.4,8.5,31.9,8.1
		c18.3-0.6,34.8-6.3,49.7-16.9c7-5,14-10.1,20.8-15.5c7.5-6,14.8-12.2,21.9-18.6c9.3-8.4,17.7-17.6,25.9-27.1
		c14.4-16.4,27.7-33.7,40.5-51.4c0.4-0.6,0.9-1.1,1.4-1.6C366.5,194.3,366.7,194.4,366.9,194.6z"/>
	<path class="st1" d="M122.9,375.5c4.6,0,9-0.3,13.3,0.1c5,0.4,8.9,5.1,9,10.2c0.1,6.8,0,13.6,0,20.5c0,25.2,0,50.4,0,75.6
		c0,0.9,0,1.7,0,2.7c-7.5,0-14.8,0-22.3,0C122.9,448.2,122.9,412,122.9,375.5z"/>
	<path class="st1" d="M363.8,535.9c1.8,0.2,3.2,0.4,4.6,0.6c2.2,4.1,5.1,5.4,9.5,4.1c3.7-1,4.9-3.5,4.7-9.5
		c-0.4,0.2-0.8,0.4-1.2,0.6c-5.6,3.9-12.9,2.5-16.3-3.5c-3.2-5.7-3.1-11.5-0.2-17.3c3.3-6.7,12.5-7.9,17.2-3.3
		c0.2,0.2,0.4,0.3,0.8,0.6c0.1-0.9,0.2-1.7,0.4-2.6c1.4,0,2.8,0,4.4,0c0.1,0.6,0.1,1.3,0.1,1.9c0,7.2,0,14.3,0,21.5
		c0,2-0.1,3.9-0.3,5.9c-0.5,5.4-3.7,8.9-9.1,9.9c-2.7,0.5-5.5,0.5-8.2-0.3c-2.8-0.8-5.1-2.3-6-5.2
		C363.9,538.3,364,537.2,363.8,535.9z M367.8,519.2c0.4,1.9,0.5,3.9,1.1,5.7c0.9,2.7,2.9,4.3,5.8,4.6c3.1,0.3,5.7-0.9,7-3.8
		c1.9-4.2,2-8.5-0.1-12.7c-1.3-2.7-3.7-4-6.8-3.8c-3,0.3-5,2-6,4.7C368.3,515.6,368.2,517.4,367.8,519.2z"/>
	<path class="st1" d="M319.8,521.1c-7.2,0-14,0-20.8,0c-0.5,3.7,1.9,7.6,5.3,8.8c4.2,1.4,7.2,0,10.4-5.3c1.5,0.2,3,0.4,4.8,0.6
		c-1.1,4.2-3.4,7.1-7.4,8.5c-3.5,1.2-7.1,1.2-10.5-0.1c-3.8-1.4-6.2-4.2-7.3-8.1c-1.1-3.7-1.1-7.5,0-11.2c1.8-6.2,6.7-9.6,13-9.3
		c6.6,0.3,11.3,4.7,12.1,11.2C319.6,517.6,319.7,519.2,319.8,521.1z M314.3,516.8c-0.1-5.2-3.8-7.7-7.7-7.7c-4.3,0-7.7,3.5-7.6,7.7
		C304.2,516.8,309.2,516.8,314.3,516.8z"/>
	<path class="st1" d="M233.3,524.6c1.4,0.2,2.9,0.4,4.7,0.6c-0.4,2.6-1.6,4.6-3.3,6.1c-4.2,3.7-9.2,4-14.3,2.3
		c-4.9-1.6-7.3-5.5-8-10.5c-0.4-2.9-0.3-5.8,0.5-8.6c1.7-6.2,6.6-9.8,13.1-9.5c6.7,0.3,11.3,4.7,12.1,11.2c0.2,1.5,0.3,3,0.4,4.9
		c-7.1,0-14,0-20.8,0c-0.5,3.8,2,7.7,5.3,8.8C227.1,531.3,230,529.8,233.3,524.6z M232.9,516.8c0-4.4-3-7.7-7.6-7.7
		c-4.3-0.1-7.5,3.1-7.8,7.7C222.6,516.8,227.7,516.8,232.9,516.8z"/>
	<path class="st1" d="M415.9,527c2.6-7.3,5.1-14.2,7.6-21.3c1.6,0,3.2,0,4.9,0c-0.1,0.5-0.1,1-0.3,1.4c-3.6,9.9-7.3,19.9-11,29.8
		c-0.7,1.8-1.6,3.6-2.7,5.2c-2.1,3.1-5.7,3.9-9.3,2.3c-0.2-1.3-0.4-2.6-0.6-4.3c2.2,0,4.6,0.9,6.2-0.9c1.2-1.5,1.9-3.5,2.8-5.1
		c-3.6-9.5-7.2-18.8-10.8-28.3c1.9,0,3.5,0,5.4,0C410.7,512.6,413.2,519.7,415.9,527z"/>
	<path class="st1" d="M277.3,533.6c-1.7,0-3.2,0-5,0c0-0.8,0-1.6,0-2.3c0-4.8,0-9.6,0-14.4c0-0.8,0-1.6-0.1-2.4
		c-0.4-3.1-1.9-4.7-4.8-5.1c-2.8-0.4-6.1,1.3-7,3.8c-0.6,1.6-0.8,3.4-0.9,5.1c-0.1,4.3,0,8.6,0,13c0,0.7,0,1.5,0,2.3
		c-1.7,0-3.2,0-4.9,0c0-9.3,0-18.5,0-27.9c1.4,0,2.7,0,4.3,0c0.1,0.9,0.2,1.8,0.3,3c0.4-0.3,0.6-0.5,0.9-0.7c3.5-3.4,7.6-3.7,12-2.3
		c3.1,1,5,3.4,5.1,6.6C277.4,519.3,277.3,526.4,277.3,533.6z"/>
	<path class="st1" d="M336.1,505.7c0.8,0,1.5-0.1,2.1-0.1c0.7,0,1.3,0,2.1,0c0.1,1.1,0.2,2,0.3,3.2c1.5-2.1,3-3.9,5.6-3.8
		c1.7,0,3.5,0.4,4.9,1.8c-0.5,1.4-1,2.8-1.6,4.3c-0.7-0.2-1.2-0.4-1.8-0.6c-2.7-0.8-5.1,0.3-5.9,3c-0.5,1.7-0.8,3.6-0.8,5.4
		c-0.1,4.2,0,8.4,0,12.5c0,0.7,0,1.5,0,2.3c-1.7,0-3.2,0-4.9,0C336.1,524.3,336.1,515.1,336.1,505.7z"/>
</g>
</svg>
