<?xml version="1.0" encoding="utf-8"?>
<!-- Generator: Adobe Illustrator 24.0.3, SVG Export Plug-In . SVG Version: 6.00 Build 0)  -->
<svg version="1.1" id="Layer_1" xmlns="http://www.w3.org/2000/svg" xmlns:xlink="http://www.w3.org/1999/xlink" x="0px" y="0px"
	 viewBox="0 0 30 30" style="enable-background:new 0 0 30 30;" xml:space="preserve">
<g>
	<path class="path-top" d="M28.2,8.2H1.8c-0.7,0-1.3-0.6-1.3-1.3V5.4c0-0.7,0.6-1.3,1.3-1.3h26.3c0.7,0,1.3,0.6,1.3,1.3v1.5
		C29.5,7.6,28.9,8.2,28.2,8.2z"/>
	<path class="path-middle" d="M28.2,17.1H1.8c-0.7,0-1.3-0.6-1.3-1.3v-1.5c0-0.7,0.6-1.3,1.3-1.3h26.3c0.7,0,1.3,0.6,1.3,1.3v1.5
		C29.5,16.5,28.9,17.1,28.2,17.1z"/>
	<path class="path-bottom" d="M28.2,25.9H1.8c-0.7,0-1.3-0.6-1.3-1.3v-1.5c0-0.7,0.6-1.3,1.3-1.3h26.3c0.7,0,1.3,0.6,1.3,1.3v1.5
		C29.5,25.3,28.9,25.9,28.2,25.9z"/>
</g>
</svg>
