<?xml version="1.0" encoding="utf-8"?>
<!-- Generator: Adobe Illustrator 24.1.2, SVG Export Plug-In . SVG Version: 6.00 Build 0)  -->
<svg version="1.1" id="Layer_1" xmlns="http://www.w3.org/2000/svg" xmlns:xlink="http://www.w3.org/1999/xlink" x="0px" y="0px"
	 viewBox="0 0 500 96.1" style="enable-background:new 0 0 500 96.1;" xml:space="preserve">
<style type="text/css">
	.st0{fill:#284168;}
	.st1{fill:#00B7F1;}
	.st2{fill:#00ACE7;}
</style>
<g>
	<path class="st0" d="M55.6,78.1c1.2-1.1,2.4-2.2,3.5-3.4c4.7-4.9,8.8-10.3,12.8-15.8c6.1-8.5,11.6-17.3,16.7-26.4
		c0.1-0.2,0.3-0.5,0.5-0.9c3.1,14.9,4.5,24.4,7,37.4c-14.8,3-25.6,6.4-40.4,9.3C55.7,78.3,55.6,78.2,55.6,78.1z"/>
	<path class="st1" d="M26.1,95.1c0.7-0.1,1.4-0.2,2.1-0.3c5.3-0.8,10.1-2.7,14.7-5.4c0.7-0.4,1.3-0.6,2.1-0.6c20.2,0,40.5,0,60.7,0
		c2.6,0,5.1,0,7.6-0.5c10.1-2,18.2-10.5,19.5-20.6c1.8-13.6-6.9-25.3-19.9-27.9c-1.2-0.2-2.3-0.3-3.6-0.5c-0.1,1-0.2,1.9-0.3,2.8
		c-0.6,4-1.9,7.8-4.4,11.1c-0.5,0.6-1,1.1-1.5,1.7c-0.1,0.1-0.2,0.1-0.3,0.2c0.2-1.5,0.4-2.8,0.6-4.2c0.8-5.8,1.2-11.6-0.2-17.3
		C99.7,20,91.5,10.8,77.5,7.4C70,5.6,62.8,6.3,55.9,9.9c-7,3.7-12.3,9-15.3,16.4c-1.3,3.3-2.2,6.6-2.3,10.2
		c-0.1,1.2-0.1,2.5-0.2,3.8c-0.9-0.2-1.8-0.3-2.7-0.5c-4.6-0.7-9.1-0.6-13.4,1.2c-7.6,3.1-12.6,8.7-15,16.6c-1.8,6-1,11.7,1.7,17.2
		c0.5,1.1,1.2,2.2,1.8,3.3c0.1,0.2,0.2,0.4,0.5,0.8c-0.3-0.1-0.4-0.1-0.4-0.2c-4.7-3.7-7.9-8.4-9.2-14.3c-0.7-3.3-0.5-6.6,0.1-9.9
		c1.1-6.1,4.4-10.7,9-14.7c4.7-4,10.1-6.4,16.2-7.1c1.6-0.2,3.2-0.2,4.8-0.3c0.2,0,0.4,0,0.6-0.1c0.1-0.5,0.3-1.1,0.4-1.6
		c1.2-5.2,3.2-10.1,6.3-14.5c6.3-8.7,14.8-14,25.4-15.9c2.8-0.5,5.5-0.7,8.3-0.5c9.3,0.7,17.6,4,24.4,10.5c5.9,5.5,9.6,12.2,11.4,20
		c0.2,0.7,0.3,1.3,0.5,2c1,0.1,1.9,0.1,2.8,0.2c5.8,0.5,10.9,2.7,15.6,6.1c6.9,5.1,11,12,12.3,20.5c2.8,17.7-9.7,33.2-25.7,35.9
		c-2.1,0.4-4.3,0.6-6.4,0.6c-25.8,0-51.6,0-77.5,0c-1.2,0-2.4-0.2-3.5-0.3c-0.1,0-0.2-0.1-0.3-0.1C26.1,95.2,26.1,95.2,26.1,95.1z"
		/>
	<path class="st0" d="M49,71.6c1.2-6.7,1.9-13.4,2.1-20.1c0.2-6.7-0.1-13.4-1.1-20.3c12.6,0,25.2,0,37.8,0c-0.1,0.1-0.2,0.3-0.3,0.5
		c-4.1,5.1-8.2,10.3-12.4,15.3c-7.4,9-15.7,17-25.1,23.9C49.7,71.1,49.4,71.3,49,71.6z"/>
	<path class="st0" d="M86.2,35.2c-0.1,0.3-0.2,0.5-0.4,0.7c-1.4,2-2.8,4-4.2,6c-2.5,3.7-4.9,7.4-7.4,11.1c-4.3,6.2-9.1,12-14.4,17.4
		C54.4,76.1,48.5,81.4,42,85.8c-4.5,3-9.5,5.1-14.9,5.9c-3.4,0.5-6.8,0.3-10.2-0.4c-4.7-1-8.5-3.5-11.4-7.3
		c-2.8-3.6-4.8-7.6-5.9-12.1c-0.2-0.7-0.2-1.4-0.3-2.2c0.1,0,0.1-0.1,0.2-0.1c0.1,0.2,0.3,0.3,0.4,0.5C1,71.7,2,73.3,3.1,74.9
		c2.2,3.2,4.9,6,8.2,8.1c3.8,2.4,8,3.3,12.4,3.2c7.1-0.2,13.5-2.5,19.3-6.6c2.7-1.9,5.5-3.9,8.1-6c2.9-2.3,5.7-4.8,8.5-7.3
		c3.6-3.3,6.9-6.9,10.1-10.5c5.6-6.4,10.8-13.1,15.8-20c0.2-0.2,0.3-0.4,0.5-0.6C86,35.1,86.1,35.2,86.2,35.2z"/>
	<path class="st1" d="M460.7,62.5c-5.1,0-10,0-14.9,0c-0.4-0.7-0.8-1.3-1.1-2c-2.5-4.5-4.9-9-7.4-13.5c-0.7-1.2-1.5-2.3-2.3-3.3
		c-0.6-0.8-1.5-1.3-2.6-0.8c-1.2,0.4-1.7,1.1-1.7,2.5c0,5.3,0,10.5,0,15.8c0,0.4,0,0.9,0,1.4c-4.2,0-8.3,0-12.4,0
		c0-20.2,0-40.3,0-60.5c0.4,0,0.7-0.1,1-0.1c1.8,0,3.7,0,5.5,0c3-0.1,5.9,2.9,5.9,5.9c-0.1,7.8,0,15.6,0,23.4c0,0.4,0,0.8,0,1.2
		c0.1,0,0.1,0.1,0.2,0.1c4.9-5.6,9.8-11.3,14.6-16.9c7.5,0,15,0,22.6,0c3.1,10.8,6.2,21.6,9.4,32.7c0.2-0.6,0.3-0.9,0.4-1.2
		c2.6-9.1,5.2-18.1,7.8-27.2c0.9-3.1,2.6-4.3,5.7-4.3c2.4,0,4.9,0,7.3,0c0.4,0,0.7,0,1.2,0c-0.1,0.5-0.2,0.9-0.3,1.2
		c-5.8,17.3-11.6,34.6-17.5,51.8c-0.7,2-1.7,3.8-2.7,5.7c-1.4,2.5-3.7,4-6.5,4.5c-3.4,0.6-6.8,0.8-10.2,0.4c-0.5-0.1-1-0.1-1.5-0.1
		c0-3.2,0-6.4,0-9.7c0.5,0,0.9-0.1,1.4-0.1c1.5-0.1,3-0.2,4.5-0.3c0.1,0,0.2,0,0.3-0.1c3.3-0.9,4.5-2.9,3.4-6.2
		c-1.6-4.8-3.3-9.5-4.9-14.2c-3.1-8.9-6.3-17.9-9.4-26.8c-0.1-0.3-0.3-0.7-0.5-1.2c-4.1,4.4-8.1,8.7-12.2,13.1
		C449.5,43.2,455,52.7,460.7,62.5z"/>
	<path class="st2" d="M366.5,43.6c4.2,0,8.3,0,12.4,0c0.1,0.3,0.2,0.6,0.2,0.8c0.7,4.2,3.1,6.8,7.1,8c3.9,1.2,7.9,1.3,11.9,0.2
		c2.7-0.7,4.8-2.2,5.4-5.1c0.4-1.9,0-3.6-1.4-5c-1.3-1.2-2.8-2.2-4.5-2.7c-2.9-1-5.8-1.9-8.7-2.7c-3.9-1.2-8.1-1.7-11.9-3.4
		c-1.5-0.6-2.9-1.4-4.2-2.3c-2.3-1.5-3.3-3.9-4.3-6.3c-0.9-2.4-1.2-4.9-1.1-7.4c0.1-3.1,0.8-6.1,2.5-8.8c2.3-3.7,5.6-5.9,9.7-7.2
		c4.7-1.5,9.6-1.8,14.6-1.4c2.7,0.2,5.3,0.7,7.8,1.6c6.7,2.5,10.3,7.5,11.6,14.3c0.2,1.1,0.2,2.1,0.4,3.3c-0.3,0-0.5,0.1-0.7,0.1
		c-2.2,0-4.4,0-6.5,0c-2.5,0-4.5-1.1-5.6-3.3c-1.5-3-3.9-4.6-7.1-5.3c-2.9-0.6-5.8-0.6-8.7,0.1c-2.7,0.7-4.7,2.2-5.4,5
		c-0.6,2.3,0,4.1,2,5.5c1.9,1.4,4.2,2.2,6.5,2.8c4.9,1.3,9.9,2.5,14.7,4c2.3,0.7,4.6,1.6,6.6,3c3.1,2.1,5,5.1,5.8,8.7
		c0.9,3.9,0.6,7.8-0.7,11.5c-1.8,5.2-5.5,8.6-10.7,10.5c-3.2,1.2-6.4,1.7-9.8,1.8c-4.7,0.2-9.3,0-13.8-1.4
		c-8-2.4-13.2-8.8-13.9-17.1C366.7,44.8,366.6,44.3,366.5,43.6z"/>
	<path class="st0" d="M208.8,21.8c-0.1,0-0.2,0.1-0.3,0.1c-2.7,0-5.5,0-8.2-0.1c-2.2-0.1-3.8-1.4-4.9-3.3c-0.4-0.7-0.8-1.4-1.2-2
		c-1.5-2.4-3.6-3.7-6.3-4.4c-3.4-0.8-6.8-0.8-10.2,0.1c-4.7,1.3-7.8,4.4-9.6,8.9c-1,2.5-1.4,5.1-1.6,7.8c-0.3,3.8-0.1,7.5,0.7,11.2
		c0.5,2.4,1.5,4.6,2.8,6.6c2.2,3.2,5.1,5.1,8.9,5.8c2.7,0.5,5.4,0.5,8.1-0.2c4.8-1.2,7.6-4.3,9.1-8.9c0.2-0.5,0.3-1,0.5-1.5
		c0-0.1,0.1-0.1,0.1-0.2c4,0,8,0,12.1,0c-0.1,2.4-0.6,4.7-1.3,6.8c-2.5,7.2-7.4,11.8-14.6,14c-6.7,2.1-13.5,2.2-20.3,0.4
		c-8.4-2.2-13.9-7.7-16.8-15.8c-1.3-3.7-1.9-7.5-2.1-11.3c-0.3-4.8,0-9.6,0.9-14.3c1.4-6.6,4.4-12.2,9.9-16.2
		c3.4-2.5,7.2-3.9,11.3-4.5c5.3-0.9,10.5-0.9,15.7,0.4c5.7,1.4,10.5,4.2,13.7,9.3c2.2,3.4,3.2,7.1,3.5,11.1
		C208.9,21.5,208.8,21.6,208.8,21.8z"/>
	<path class="st0" d="M273.6,42.3c-10.1,0-20.2,0-30.4,0c0.1,0.9,0.1,1.7,0.2,2.5c0.3,1.8,0.8,3.4,1.9,4.9c1.9,2.7,4.6,3.5,7.7,3.4
		c1,0,2.1-0.3,3.1-0.5c1.5-0.4,2.7-1.2,3.7-2.5c1.1-1.4,2.5-2.1,4.3-2.1c2.7,0,5.4,0,8.1,0c0.3,0,0.6,0,1,0.1
		c-0.1,0.4-0.1,0.8-0.3,1.1c-2.1,6.9-6.7,11.3-13.6,13.3c-4.3,1.2-8.7,1.3-13,0.3c-7.1-1.6-11.6-6.2-14-13
		c-1.6-4.6-1.9-9.5-1.5-14.3c0.2-3.3,0.9-6.6,2.3-9.7c3.1-6.6,8.3-10.3,15.6-11.2c3.7-0.4,7.3-0.2,10.8,0.8
		c6.3,1.8,10.5,5.9,12.7,12c1.6,4.5,1.9,9.2,1.8,14C273.8,41.7,273.7,41.9,273.6,42.3z M243.2,34.2c5.9,0,11.8,0,17.6,0
		c0.4-2.7-1.2-6.6-3.6-7.9c-3.3-1.9-6.7-2-9.9,0C244.3,27.9,243.4,30.8,243.2,34.2z"/>
	<path class="st0" d="M290.4,27.7c-4,0-7.9,0-11.9,0c0.1-0.5,0.1-0.9,0.2-1.3c1.1-4.8,4-8,8.4-10.1c2.4-1.1,5.1-1.6,7.7-1.8
		c4.3-0.2,8.6,0,12.8,1.3c1.3,0.4,2.5,0.9,3.7,1.6c3.8,2.2,5.7,5.6,5.8,10c0.1,5.7,0.1,11.4,0,17.1c0,1.7-0.2,3.4-0.5,5
		C315.1,56,311.1,60,305,62c-2.8,0.9-5.7,1.2-8.6,1.3c-2.7,0.1-5.3,0.2-7.9-0.4c-2.2-0.5-4.2-1.4-6-2.6c-2.3-1.5-3.8-3.6-4.5-6.2
		c-1-3.5-1-7.1-0.1-10.7c0.7-2.5,2.1-4.5,4.2-5.9c3.4-2.2,7.1-3.4,11.1-3.9c2.6-0.4,5.2-0.8,7.7-1.4c1-0.2,1.9-0.7,2.8-1.2
		c1-0.6,1.6-1.6,1.5-2.8c-0.1-1.4-0.8-2.4-2.1-2.8c-3.2-1.1-6.5-1.4-9.8-0.4C292,25.4,291,26.4,290.4,27.7z M305.5,39
		c-3.4,1.5-6.6,2.2-9.8,2.9c-1.1,0.2-2.2,0.6-3.2,1c-2.4,0.8-3.5,2.5-3.7,4.9c-0.2,2.6,0.9,5.5,4.7,5.9c1.1,0.1,2.3,0.1,3.5,0
		c4.2-0.4,7.5-3.4,8.1-7.5C305.4,43.9,305.3,41.6,305.5,39z"/>
	<path class="st0" d="M333.7,62.5c-4.2,0-8.3,0-12.4,0c0-0.5-0.1-0.9-0.1-1.3c0-9.1,0-18.1,0-27.2c0-3.7,0.5-7.2,2.2-10.6
		c1-1.9,2.3-3.4,4.1-4.6c4.5-2.9,9.3-4.4,14.7-4.4c5,0.1,9.7,1.5,13.9,4.3c2.7,1.8,4.2,4.5,5.1,7.6c0.8,2.7,1.1,5.5,1.1,8.3
		c0,8.8,0,17.6,0,26.4c0,0.4,0,0.8-0.1,1.3c-0.4,0-0.7,0.1-1.1,0.1c-1.7,0-3.4,0-5.1,0c-3.9-0.1-6.2-2.4-6.2-6.3
		c0-7.8,0-15.5,0-23.3c0-0.6,0-1.3-0.1-1.9c-0.3-2.8-1.9-4.7-4.5-5.8c-2.4-1-4.9-1-7.3,0.1c-2.7,1.2-4.1,3.3-4.2,6.2
		c0,0.4,0,0.9,0,1.3c0,9.3,0,18.7,0,28C333.7,61.4,333.7,61.9,333.7,62.5z"/>
	<path class="st0" d="M214.7,1.9c2.5,0,5-0.2,7.4,0c2.8,0.2,5,2.8,5,5.6c0,3.8,0,7.6,0,11.4c0,14,0,28,0,42c0,0.5,0,1,0,1.5
		c-4.2,0-8.2,0-12.4,0C214.7,42.3,214.7,22.2,214.7,1.9z"/>
	<path class="st0" d="M348.4,90.9c1,0.1,1.8,0.2,2.5,0.3c1.2,2.3,2.8,3,5.3,2.3c2-0.6,2.7-2,2.6-5.3c-0.2,0.1-0.5,0.2-0.7,0.4
		c-3.1,2.2-7.2,1.4-9-1.9c-1.8-3.1-1.7-6.4-0.1-9.6c1.8-3.7,6.9-4.4,9.6-1.8c0.1,0.1,0.2,0.2,0.4,0.3c0.1-0.5,0.1-0.9,0.2-1.4
		c0.8,0,1.6,0,2.5,0c0,0.4,0.1,0.7,0.1,1.1c0,4,0,7.9,0,11.9c0,1.1-0.1,2.2-0.2,3.3c-0.3,3-2.1,5-5,5.5c-1.5,0.3-3.1,0.3-4.6-0.2
		c-1.5-0.5-2.8-1.3-3.3-2.9C348.5,92.3,348.5,91.6,348.4,90.9z M350.6,81.7c0.2,1.1,0.3,2.2,0.6,3.2c0.5,1.5,1.6,2.4,3.2,2.6
		c1.7,0.2,3.2-0.5,3.9-2.1c1.1-2.3,1.1-4.7-0.1-7c-0.7-1.5-2.1-2.2-3.8-2.1c-1.7,0.1-2.8,1.1-3.3,2.6
		C350.9,79.7,350.8,80.7,350.6,81.7z"/>
	<path class="st0" d="M324,82.7c-4,0-7.8,0-11.5,0c-0.3,2,1.1,4.2,2.9,4.9c2.3,0.8,4,0,5.8-2.9c0.8,0.1,1.7,0.2,2.7,0.3
		c-0.6,2.3-1.9,3.9-4.1,4.7c-1.9,0.7-3.9,0.6-5.8-0.1c-2.1-0.8-3.5-2.3-4.1-4.5c-0.6-2.1-0.6-4.2,0-6.2c1-3.4,3.7-5.3,7.2-5.2
		c3.7,0.2,6.3,2.6,6.7,6.2C323.9,80.8,323.9,81.6,324,82.7z M321,80.3c-0.1-2.9-2.1-4.3-4.3-4.3c-2.4,0-4.3,2-4.2,4.3
		C315.3,80.3,318.1,80.3,321,80.3z"/>
	<path class="st0" d="M276,84.6c0.8,0.1,1.6,0.2,2.6,0.3c-0.2,1.4-0.9,2.5-1.9,3.4c-2.4,2-5.1,2.2-7.9,1.3c-2.7-0.9-4-3-4.5-5.8
		c-0.2-1.6-0.2-3.2,0.3-4.8c0.9-3.5,3.7-5.4,7.3-5.3c3.7,0.2,6.3,2.6,6.7,6.2c0.1,0.8,0.1,1.7,0.2,2.7c-4,0-7.8,0-11.5,0
		c-0.3,2.1,1.1,4.3,2.9,4.9C272.5,88.4,274.1,87.6,276,84.6z M275.7,80.3c0-2.4-1.7-4.3-4.2-4.3c-2.4,0-4.1,1.7-4.3,4.3
		C270,80.3,272.9,80.3,275.7,80.3z"/>
	<path class="st0" d="M377.3,86c1.4-4,2.8-7.9,4.2-11.8c0.9,0,1.8,0,2.7,0c-0.1,0.3-0.1,0.5-0.1,0.8c-2,5.5-4,11-6.1,16.5
		c-0.4,1-0.9,2-1.5,2.9c-1.2,1.7-3.1,2.2-5.2,1.3c-0.1-0.7-0.2-1.5-0.3-2.4c1.2,0,2.6,0.5,3.4-0.5c0.7-0.8,1.1-1.9,1.6-2.8
		c-2-5.3-4-10.4-6-15.7c1,0,1.9,0,3,0C374.4,78,375.9,81.9,377.3,86z"/>
	<path class="st0" d="M300.4,89.7c-0.9,0-1.8,0-2.8,0c0-0.5,0-0.9,0-1.3c0-2.7,0-5.3,0-8c0-0.4,0-0.9-0.1-1.3
		c-0.2-1.7-1.1-2.6-2.7-2.8c-1.6-0.2-3.4,0.7-3.9,2.1c-0.3,0.9-0.5,1.9-0.5,2.9c-0.1,2.4,0,4.8,0,7.2c0,0.4,0,0.8,0,1.3
		c-1,0-1.8,0-2.7,0c0-5.2,0-10.3,0-15.5c0.8,0,1.5,0,2.4,0c0,0.5,0.1,1,0.2,1.6c0.2-0.2,0.4-0.3,0.5-0.4c2-1.9,4.2-2.1,6.7-1.3
		c1.7,0.6,2.8,1.9,2.9,3.7C300.5,81.7,300.4,85.6,300.4,89.7z"/>
	<path class="st0" d="M333,74.1c0.4,0,0.8,0,1.2,0c0.4,0,0.7,0,1.2,0c0.1,0.6,0.1,1.1,0.2,1.8c0.8-1.2,1.7-2.1,3.1-2.1
		c1,0,1.9,0.2,2.7,1c-0.3,0.8-0.6,1.5-0.9,2.4c-0.4-0.1-0.7-0.2-1-0.3c-1.5-0.5-2.8,0.2-3.3,1.7c-0.3,1-0.4,2-0.5,3
		c-0.1,2.3,0,4.6,0,7c0,0.4,0,0.8,0,1.3c-1,0-1.8,0-2.7,0C333,84.5,333,79.4,333,74.1z"/>
</g>
</svg>
