<?xml version="1.0" encoding="utf-8"?>
<!-- Generator: Adobe Illustrator 24.3.0, SVG Export Plug-In . SVG Version: 6.00 Build 0)  -->
<svg version="1.1" id="Layer_1" xmlns="http://www.w3.org/2000/svg" xmlns:xlink="http://www.w3.org/1999/xlink" x="0px" y="0px"
	 viewBox="0 0 600 105.4" style="enable-background:new 0 0 600 105.4;" xml:space="preserve">
<style type="text/css">
	.st0{fill:#FFCD4C;}
	.st1{fill:#969696;}
</style>
<polygon class="st0" points="55.4,0 68.5,40.2 110.8,40.2 76.6,65.1 89.6,105.4 55.4,80.5 21.2,105.4 34.2,65.1 0,40.2 42.3,40.2 
	"/>
<polygon class="st0" points="177.7,0 190.8,40.2 233.1,40.2 198.9,65.1 211.9,105.4 177.7,80.5 143.5,105.4 156.5,65.1 122.3,40.2 
	164.6,40.2 "/>
<polygon class="st0" points="300,0 313.1,40.2 355.4,40.2 321.2,65.1 334.2,105.4 300,80.5 265.8,105.4 278.8,65.1 244.6,40.2 
	286.9,40.2 "/>
<g>
	<path class="st1" d="M422.3,6.5l11.2,34.4l0.4,1.4h1.5h36.2l-29.3,21.3l-1.2,0.9l0.4,1.4l11.2,34.4l-29.3-21.3l-1.2-0.9l-1.2,0.9
		l-29.3,21.3L403,65.7l0.4-1.4l-1.2-0.9l-29.3-21.3h36.2h1.5l0.4-1.4L422.3,6.5 M422.3,0l-13.1,40.2h-42.3l34.2,24.9l-13.1,40.2
		l34.2-24.9l34.2,24.9l-13.1-40.2l34.2-24.9h-42.3L422.3,0L422.3,0z"/>
</g>
<g>
	<path class="st1" d="M544.6,6.5l11.2,34.4l0.4,1.4h1.5h36.2l-29.3,21.3l-1.2,0.9l0.4,1.4l11.2,34.4l-29.3-21.3l-1.2-0.9l-1.2,0.9
		l-29.3,21.3l11.2-34.4l0.4-1.4l-1.2-0.9l-29.3-21.3h36.2h1.5l0.4-1.4L544.6,6.5 M544.6,0l-13.1,40.2h-42.3l34.2,24.9l-13.1,40.2
		l34.2-24.9l34.2,24.9l-13.1-40.2L600,40.2h-42.3L544.6,0L544.6,0z"/>
</g>
</svg>
